<svg width="16" height="20" viewBox="0 0 16 20" fill="none" xmlns="http://www.w3.org/2000/svg">
<path fill-rule="evenodd" clip-rule="evenodd" d="M6.8232 3.23729C6.9807 3.0798 7.25 3.19134 7.25 3.41407V12.2499C7.25 12.6641 7.5858 12.9999 8 12.9999C8.4142 12.9999 8.75 12.6641 8.75 12.2499V3.41406C8.75 3.19134 9.0193 3.0798 9.1768 3.23729L11.9697 6.03018C12.2626 6.32307 12.7374 6.32307 13.0303 6.03018C13.3232 5.73729 13.3232 5.26241 13.0303 4.96952L9.2374 1.17663C8.554 0.493208 7.446 0.493208 6.7626 1.17663L2.96967 4.96952C2.67678 5.26241 2.67678 5.73729 2.96967 6.03018C3.26256 6.32307 3.73744 6.32307 4.03033 6.03018L6.8232 3.23729ZM5.25 7.99988H2C0.89543 7.99988 0 8.89528 0 9.99988V17.9999C0 19.1045 0.89543 19.9999 2 19.9999H14C15.1046 19.9999 16 19.1045 16 17.9999V9.99988C16 8.89528 15.1046 7.99988 14 7.99988H10.75V9.49988H14C14.2761 9.49988 14.5 9.72378 14.5 9.99988V17.9999C14.5 18.276 14.2761 18.4999 14 18.4999H2C1.72386 18.4999 1.5 18.276 1.5 17.9999V9.99988C1.5 9.72378 1.72386 9.49988 2 9.49988H5.25V7.99988Z" fill="#707070"/>
</svg>
